<?xml version="1.0" encoding="utf-8"?>
<!-- Generator: Adobe Illustrator 19.2.1, SVG Export Plug-In . SVG Version: 6.00 Build 0)  -->
<svg version="1.1" id="Layer_1" xmlns="http://www.w3.org/2000/svg" xmlns:xlink="http://www.w3.org/1999/xlink" x="0px" y="0px"
	 viewBox="0 0 236.3 116.6" style="enable-background:new 0 0 236.3 116.6;" xml:space="preserve">
<style type="text/css">
	.st0{fill:none;stroke:#FFFFFF;stroke-miterlimit:10;}
	.st1{display:none;}
	.st2{display:inline;}
	.st3{fill:none;stroke:#FFFFFF;stroke-width:0.25;stroke-miterlimit:10;}
</style>
<g id="Capa_1">
	<g>
		<g>
			<path class="st0" d="M62.1,76.8c0,2-0.6,3.5-1.8,4.6S57.5,83,55.5,83h-8.9V61h8.6c2,0,3.7,0.5,4.9,1.6s1.8,2.6,1.8,4.4
				c0,1.1-0.3,2.1-0.9,3c-0.6,0.8-1.2,1.3-2,1.7C61,72.6,62.1,74.3,62.1,76.8z M58.4,67.2c0-1-0.3-1.8-1-2.3s-1.5-0.8-2.6-0.8h-5
				v6.3h5c1.1,0,2-0.3,2.6-0.8C58.1,69,58.4,68.2,58.4,67.2z M58.8,76.7c0-1-0.3-1.8-1-2.4c-0.6-0.6-1.5-0.9-2.7-0.9h-5.3v6.7h5.3
				c1.1,0,2-0.3,2.7-0.9C58.4,78.5,58.8,77.7,58.8,76.7z"/>
			<path class="st0" d="M79.6,72c0,2.6-0.1,4.3-0.2,5.2c-0.2,1.4-0.9,2.7-1.9,3.7c-1.6,1.6-3.5,2.4-5.8,2.4s-4.2-0.8-5.8-2.4
				c-1-1-1.6-2.2-1.9-3.7c-0.2-0.9-0.2-2.6-0.2-5.2s0.1-4.3,0.2-5.2c0.3-1.4,0.9-2.7,1.9-3.7c1.6-1.6,3.5-2.4,5.8-2.4
				s4.3,0.8,5.8,2.4c1,1,1.6,2.2,1.9,3.7C79.6,67.7,79.6,69.5,79.6,72z M76.3,72c0-1.9,0-3.1-0.1-3.6c-0.1-1.5-0.5-2.6-1.2-3.3
				c-0.8-0.9-1.9-1.4-3.3-1.4c-1.3,0-2.4,0.5-3.3,1.4c-0.7,0.7-1.1,1.8-1.2,3.3c-0.1,0.5-0.1,1.7-0.1,3.6s0,3.1,0.1,3.6
				c0.1,1.5,0.5,2.6,1.2,3.3c0.8,0.9,1.9,1.4,3.3,1.4c1.3,0,2.4-0.5,3.3-1.4c0.7-0.7,1.1-1.8,1.2-3.3C76.3,75.1,76.3,73.9,76.3,72z"
				/>
			<path class="st0" d="M97.2,72c0,2.6-0.1,4.3-0.2,5.2c-0.2,1.4-0.9,2.7-1.9,3.7c-1.6,1.6-3.5,2.4-5.8,2.4s-4.2-0.8-5.8-2.4
				c-1-1-1.6-2.2-1.9-3.7c-0.2-0.9-0.2-2.6-0.2-5.2s0.1-4.3,0.2-5.2c0.3-1.4,0.9-2.7,1.9-3.7c1.6-1.6,3.5-2.4,5.8-2.4
				s4.3,0.8,5.8,2.4c1,1,1.6,2.2,1.9,3.7C97.1,67.7,97.2,69.5,97.2,72z M93.8,72c0-1.9,0-3.1-0.1-3.6c-0.1-1.5-0.5-2.6-1.2-3.3
				c-0.8-0.9-1.9-1.4-3.3-1.4c-1.3,0-2.4,0.5-3.3,1.4c-0.7,0.7-1.1,1.8-1.2,3.3c-0.1,0.5-0.1,1.7-0.1,3.6s0,3.1,0.1,3.6
				c0.1,1.5,0.5,2.6,1.2,3.3c0.8,0.9,1.9,1.4,3.3,1.4c1.3,0,2.4-0.5,3.3-1.4c0.7-0.7,1.1-1.8,1.2-3.3C93.8,75.1,93.8,73.9,93.8,72z"
				/>
			<path class="st0" d="M113.2,64h-6.1v19.1h-3.3V64h-6.1v-3h15.5V64z"/>
			<path class="st0" d="M132.8,80.7c-1.8,1.7-3.8,2.6-6.2,2.6c-2.3,0-4.2-0.8-5.8-2.4c-1-1-1.6-2.2-1.9-3.7
				c-0.2-0.9-0.2-2.6-0.2-5.2s0.1-4.3,0.2-5.2c0.3-1.4,0.9-2.7,1.9-3.7c1.6-1.6,3.5-2.4,5.8-2.4s4.4,0.9,6.2,2.6l-2.2,2.3
				c-1.2-1.2-2.6-1.9-3.9-1.9c-1.3,0-2.4,0.4-3.3,1.3c-0.7,0.7-1.1,1.8-1.2,3.3c-0.1,0.5-0.1,1.7-0.1,3.6s0,3.1,0.1,3.6
				c0.1,1.5,0.5,2.6,1.2,3.3c0.8,0.9,1.9,1.3,3.3,1.3s2.7-0.6,3.9-1.9L132.8,80.7z"/>
			<path class="st0" d="M151,83.1h-3.6l-1.5-4.4h-8.7l-1.5,4.4h-3.6l8.1-22.1h2.7L151,83.1z M145,75.8l-3.3-9.8l-3.4,9.8H145z"/>
			<path class="st0" d="M171.1,83.1h-3.3V68.3l-5.1,10.8h-2.5L155,68.3v14.8h-3.3V61h3.3l6.4,13.7l6.3-13.7h3.3v22.1H171.1z"/>
			<path class="st0" d="M189.8,67.7c0,1.9-0.6,3.5-1.9,4.8c-1.3,1.3-3,1.9-5.1,1.9h-5v8.7h-3.3V61h8.4c2.1,0,3.8,0.6,5.1,1.9
				C189.2,64.2,189.8,65.8,189.8,67.7z M186.5,67.7c0-1.2-0.4-2.1-1.1-2.7c-0.7-0.7-1.7-1-2.8-1h-4.8v7.3h4.8c1.2,0,2.1-0.3,2.8-1
				C186.1,69.7,186.5,68.8,186.5,67.7z"/>
		</g>
		<polyline class="st0" points="99.8,46.9 40.8,46.9 40.8,95.1 195.6,95.1 195.6,47.4 136.9,47.4 		"/>
		<g id="hfesP5_1_">
			<g>
				<path class="st0" d="M94.6,51.9c0-0.6,0-1.2,0-1.8c0.8,0,1.7,0,2.5,0c0.4,0,0.7-0.1,1-0.5c3.8-6,7.6-12,11.5-18
					c2.5-3.9,4.9-7.8,7.4-11.6c0.3-0.5,0.4-0.9,0-1.4c-0.6-0.8-1.2-1.7-1.8-2.7c0.4-0.3,0.7-0.7,1.2-1.1c0.6,1,1.2,1.9,1.9,2.9
					c0.7-1,1.3-1.9,1.9-2.7c1.2,0.5,1.3,0.9,0.6,1.8c-0.4,0.7-0.9,1.3-1.3,2c-0.2,0.3-0.3,0.6,0,0.9c3.4,5.4,6.9,10.9,10.3,16.3
					c2.8,4.5,5.7,9,8.5,13.4c0.3,0.5,0.6,0.6,1.1,0.6c0.8,0,1.6,0,2.5,0c0,0.7,0,1.2,0,1.8C126,51.9,110.3,51.9,94.6,51.9z
					 M118.3,35.8c-3,4.8-6,9.5-9,14.2c6,0,11.9,0,17.8,0C124.1,45.2,121.2,40.6,118.3,35.8z"/>
			</g>
		</g>
	</g>
</g>
<g id="Capa_2" class="st1">
	<g class="st2">
		<polyline class="st3" points="575.7,577.8 515,577.8 515,626 669.8,626 669.8,578.3 596.3,578.3 		"/>
		<g>
			<path class="st3" d="M537.7,611c0,2.4-0.9,4.3-2.6,5.7c-1.8,1.4-4,2.1-6.8,2.1c-3.9,0-7-1.2-9.3-3.5l2.7-2.6
				c1.7,1.7,3.9,2.5,6.7,2.5c1.7,0,3.1-0.4,4-1.1c0.9-0.7,1.4-1.7,1.4-3c0-1.2-0.3-2.1-1-2.7c-0.6-0.5-1.6-0.9-2.9-1.1l-3.1-0.4
				c-2.2-0.3-3.8-1-5-2.1c-1.3-1.2-1.9-2.9-1.9-5c0-2.3,0.8-4.2,2.4-5.6c1.6-1.4,3.7-2.1,6.4-2.1c3.3,0,6,1,8.2,3l-2.5,2.5
				c-1.4-1.4-3.3-2-5.7-2c-1.5,0-2.7,0.4-3.5,1.1c-0.9,0.8-1.3,1.8-1.3,3c0,1,0.3,1.9,1,2.5s1.7,1,2.9,1.2l3,0.4
				c2.2,0.3,3.8,1,4.9,2C537,606.8,537.7,608.6,537.7,611z"/>
			<path class="st3" d="M557.7,595.7h-7.3v22.7h-4v-22.7h-7.3v-3.6h18.5L557.7,595.7L557.7,595.7z"/>
			<path class="st3" d="M580.2,618.5h-4.3l-1.8-5.3h-10.4l-1.8,5.3h-4.3l9.7-26.3h3.2L580.2,618.5z M573,609.8l-4-11.7l-4.1,11.7
				H573z"/>
			<path class="st3" d="M601.6,618.5H597l-5.6-11.1h-5v11.1h-4v-26.3h10.2c2.5,0,4.4,0.7,5.9,2.1c1.5,1.4,2.2,3.3,2.2,5.5
				c0,1.8-0.5,3.3-1.5,4.5s-2.2,2-3.8,2.5L601.6,618.5z M596.8,599.9c0-1.3-0.4-2.3-1.2-3s-1.9-1.1-3.3-1.1h-5.9v8.3h5.9
				c1.4,0,2.4-0.4,3.3-1.1C596.4,602.2,596.8,601.2,596.8,599.9z"/>
			<path class="st3" d="M623.7,609.6c0,2.7-0.9,4.9-2.7,6.6c-1.8,1.7-4.1,2.5-6.8,2.5s-5-0.8-6.8-2.5s-2.7-3.9-2.7-6.6v-17.5h4v17.3
				c0,1.8,0.5,3.1,1.5,4.2c1,1,2.3,1.5,4,1.5s3-0.5,4-1.5s1.5-2.4,1.5-4.2v-17.3h4V609.6z"/>
			<path class="st3" d="M647.1,600.1c0,2.3-0.8,4.2-2.3,5.7s-3.6,2.3-6.1,2.3h-6v10.4h-4v-26.3h10c2.5,0,4.6,0.8,6.1,2.3
				C646.3,595.9,647.1,597.8,647.1,600.1z M643.1,600.1c0-1.4-0.4-2.5-1.3-3.2c-0.9-0.8-2-1.2-3.4-1.2h-5.8v8.8h5.8
				c1.4,0,2.5-0.4,3.4-1.2C642.7,602.6,643.1,601.5,643.1,600.1z"/>
			<path class="st3" d="M666.9,611c0,2.4-0.9,4.3-2.6,5.7c-1.8,1.4-4,2.1-6.8,2.1c-3.9,0-7-1.2-9.3-3.5l2.7-2.6
				c1.7,1.7,3.9,2.5,6.7,2.5c1.7,0,3.1-0.4,4-1.1c0.9-0.7,1.4-1.7,1.4-3c0-1.2-0.3-2.1-1-2.7c-0.6-0.5-1.6-0.9-2.9-1.1l-3.1-0.4
				c-2.2-0.3-3.8-1-5-2.1c-1.3-1.2-1.9-2.9-1.9-5c0-2.3,0.8-4.2,2.4-5.6c1.6-1.4,3.7-2.1,6.4-2.1c3.3,0,6,1,8.2,3l-2.5,2.5
				c-1.4-1.4-3.3-2-5.7-2c-1.5,0-2.7,0.4-3.5,1.1c-0.9,0.8-1.3,1.8-1.3,3c0,1,0.3,1.9,1,2.5s1.7,1,2.9,1.2l3,0.4
				c2.2,0.3,3.8,1,4.9,2C666.2,606.8,666.9,608.6,666.9,611z"/>
		</g>
		<g id="FSuVWQ.tif_3_">
			<g>
				<path class="st3" d="M602,557.4c1-0.2,2-0.4,3-0.6c1-0.2,2-0.3,3-0.5c0.1,0,0.2,0,0.3,0c0.7,0,0.9,0.2,0.8,0.9
					c-0.2,1.3-0.4,2.5-0.6,3.8c-0.1,0.8-0.3,1.7-0.5,2.5C606,561.4,604,559.4,602,557.4z"/>
				<g>
					<path class="st3" d="M607.5,564.1c-2-2-4.1-4.1-6.1-6.1c-0.2-0.2-0.4-0.3-0.7-0.2c-2.8,1-5.3,2.6-7.5,4.5
						c-2.6,2.2-4.7,4.8-6.6,7.6c-0.1,0.2-0.3,0.3-0.5,0.3c-1.5,0.1-2.9,0.2-4.4,0.3c-0.2,0-0.5,0.1-0.6,0.3c-1.8,2-3.5,3.9-5.2,5.9
						c-0.3,0.4-0.3,0.7,0,1s0.6,0.6,0.9,0.9c0.4,0.4,0.6,0.4,1.1,0.1c1.3-0.8,2.6-1.6,3.9-2.4c0.3-0.2,0.5-0.1,0.8,0.1
						c-0.2,0.3-0.3,0.6-0.5,0.8c-0.2,0.3-0.1,0.6,0.1,0.8c1.7,1.7,3.5,3.5,5.2,5.2c0.2,0.2,0.5,0.3,0.8,0.1s0.6-0.3,0.9-0.5
						c0.2,0.3,0.2,0.5,0,0.8c-0.8,1.3-1.6,2.6-2.4,3.9c-0.2,0.4-0.2,0.6,0.1,0.9c0.3,0.3,0.6,0.6,0.9,0.9c0.5,0.5,0.7,0.5,1.2,0
						c1.9-1.7,3.8-3.3,5.7-5c0.2-0.2,0.4-0.5,0.4-0.8c0.1-1.4,0.2-2.9,0.3-4.3c0-0.3,0.1-0.4,0.3-0.6c2.3-1.6,4.5-3.4,6.5-5.4
						c2.5-2.5,4.4-5.4,5.7-8.7C607.7,564.5,607.7,564.3,607.5,564.1z M598.8,569.2c-1.4,0-2.5-1.1-2.5-2.5s1.1-2.5,2.5-2.5
						s2.5,1.1,2.5,2.5C601.3,568.1,600.2,569.2,598.8,569.2z"/>
				</g>
			</g>
		</g>
	</g>
	<g class="st2">
		<g>
			<path class="st3" d="M530.7,326.4h-4.4v-28.9h4.4V326.4z"/>
			<path class="st3" d="M558.4,326.4h-4L541,306.1v20.3h-4.4v-28.9h4l13.4,20.3v-20.3h4.4V326.4z"/>
			<path class="st3" d="M581.8,323.3c-2.3,2.3-5,3.4-8.1,3.4c-3,0-5.5-1-7.6-3.1c-1.3-1.3-2.1-2.9-2.5-4.8c-0.2-1.2-0.3-3.5-0.3-6.8
				c0-3.4,0.1-5.6,0.3-6.8c0.4-1.9,1.2-3.5,2.5-4.8c2.1-2.1,4.6-3.1,7.6-3.1c3.1,0,5.7,1.1,8.1,3.4l-2.9,3c-1.6-1.6-3.3-2.4-5.2-2.4
				c-1.8,0-3.2,0.6-4.3,1.7c-0.9,0.9-1.4,2.3-1.6,4.3c-0.1,0.7-0.1,2.3-0.1,4.7c0,2.5,0,4.1,0.1,4.8c0.2,1.9,0.7,3.3,1.6,4.3
				c1.1,1.2,2.5,1.7,4.3,1.7s3.5-0.8,5.2-2.4L581.8,323.3z"/>
			<path class="st3" d="M606.3,316.7c0,3-1,5.4-3,7.2c-2,1.9-4.4,2.8-7.4,2.8s-5.5-0.9-7.4-2.8c-2-1.8-2.9-4.3-2.9-7.2v-19.2h4.4v19
				c0,1.9,0.5,3.4,1.6,4.6s2.5,1.7,4.3,1.7s3.3-0.6,4.4-1.7c1.1-1.1,1.6-2.6,1.6-4.6v-19h4.4L606.3,316.7L606.3,316.7z"/>
			<path class="st3" d="M632.2,318.3c0,2.6-0.8,4.6-2.4,6c-1.6,1.4-3.7,2.1-6.3,2.1h-11.7v-28.9H623c2.7,0,4.8,0.7,6.4,2.1
				c1.6,1.4,2.4,3.3,2.4,5.8c0,1.5-0.4,2.8-1.2,3.9c-0.7,1-1.6,1.8-2.7,2.2C630.8,312.7,632.2,315,632.2,318.3z M627.4,305.6
				c0-1.3-0.4-2.4-1.3-3.1s-2-1.1-3.4-1.1h-6.5v8.3h6.5c1.4,0,2.6-0.4,3.4-1.1C627,307.9,627.4,306.9,627.4,305.6z M627.9,318
				c0-1.3-0.4-2.4-1.3-3.2c-0.8-0.8-2-1.2-3.5-1.2h-6.9v8.8h6.9c1.5,0,2.7-0.4,3.5-1.2C627.4,320.4,627.9,319.4,627.9,318z"/>
			<path class="st3" d="M658.4,326.4h-4.7l-2-5.8h-11.4l-2,5.8h-4.7l10.6-28.9h3.5L658.4,326.4z M650.5,316.9l-4.4-12.9l-4.5,12.9
				H650.5z"/>
		</g>
		<polyline class="st3" points="577.3,284.4 515,284.4 515,332.6 669.8,332.6 669.8,284.9 600.2,284.9 		"/>
		<g>
			<g>
				<g id="lb0qsr.tif_3_">
					<g>
						<path class="st3" d="M582.5,288.7c-1.3-0.6-2.5-1.3-3.8-1.9c-0.5-0.2-1.3-0.3-1.6-0.1c-0.3,0.3-0.5,1.1-0.4,1.6
							c0.8,4.3,5.7,6.7,9.6,4.8c0.4-0.2,1-0.8,1-1.1c0-0.5-0.5-1.1-1-1.3C585,290,583.7,289.4,582.5,288.7z"/>
					</g>
				</g>
				<path class="st3" d="M608,277.2c4.4-8.6,1-19.2-7.7-23.6c-8.6-4.4-19.2-1-23.6,7.7c-2.9,5.7-2.4,12.2,0.8,17.3
					c0.2,0.5,0.7,2,0.5,3.1c-0.7,1.3-0.1,3,1.2,3.6l8,4.1c1.3,0.7,2.9,0.2,3.6-1.1c0.9-1.4,3.1-1.6,3.1-1.6
					C599.7,286.2,605.2,282.8,608,277.2z"/>
			</g>
			<g>
				<path class="st3" d="M589.1,278.4l-1,2l-1.8-0.9l1-2c-1.7-0.9-2.9-2.1-3.4-3.9l2.5-0.8c0.4,1.2,1.3,2,2.3,2.6l1.7-3.3l-0.5-0.4
					c-1-0.7-1.7-1.6-2-2.4c-0.3-0.9-0.2-1.9,0.4-3c1.1-2.1,3.3-2.9,5.8-2l0.8-1.6l1.8,0.9l-0.8,1.6c1.4,0.8,2.3,1.9,2.8,3.3
					l-2.4,0.8c-0.3-0.9-1.1-1.6-1.8-2l-1.6,3.2l0.6,0.5c1.1,0.8,1.7,1.5,2,2.3c0.4,1,0.2,2.1-0.4,3.3
					C593.9,278.7,591.5,279.2,589.1,278.4z M593.1,266.6c-1.1-0.4-2,0-2.4,0.8c-0.2,0.3-0.2,0.7-0.1,1.1c0.2,0.4,0.5,0.8,0.9,1.1
					L593.1,266.6z M592.7,274c-0.2-0.5-0.6-0.8-1.1-1.1L590,276c1.2,0.4,2,0.2,2.5-0.7C592.7,274.8,592.8,274.4,592.7,274z"/>
			</g>
		</g>
	</g>
</g>
</svg>
