<?xml version="1.0" encoding="utf-8"?>
<!-- Generator: Adobe Illustrator 19.2.1, SVG Export Plug-In . SVG Version: 6.00 Build 0)  -->
<svg version="1.1" id="Layer_1" xmlns="http://www.w3.org/2000/svg" xmlns:xlink="http://www.w3.org/1999/xlink" x="0px" y="0px"
	 viewBox="0 0 236.3 116.6" style="enable-background:new 0 0 236.3 116.6;" xml:space="preserve">
<style type="text/css">
	.st0{display:none;}
	.st1{display:inline;}
	.st2{fill:none;stroke:#FFFFFF;stroke-width:0.25;stroke-miterlimit:10;}
	.st3{fill:none;stroke:#FFFFFF;stroke-miterlimit:10;}
	.st4{clip-path:url(#SVGID_2_);}
	.st5{fill:#FFFFFF;}
</style>
<g id="Capa_1" class="st0">
	<g class="st1">
		<g>
			<path class="st2" d="M62.1,76.8c0,2-0.6,3.5-1.8,4.6S57.5,83,55.5,83h-8.9V61h8.6c2,0,3.7,0.5,4.9,1.6s1.8,2.6,1.8,4.4
				c0,1.1-0.3,2.1-0.9,3c-0.6,0.8-1.2,1.3-2,1.7C61,72.6,62.1,74.3,62.1,76.8z M58.4,67.2c0-1-0.3-1.8-1-2.3s-1.5-0.8-2.6-0.8h-5
				v6.3h5c1.1,0,2-0.3,2.6-0.8C58.1,69,58.4,68.2,58.4,67.2z M58.8,76.7c0-1-0.3-1.8-1-2.4c-0.6-0.6-1.5-0.9-2.7-0.9h-5.3v6.7h5.3
				c1.1,0,2-0.3,2.7-0.9C58.4,78.5,58.8,77.7,58.8,76.7z"/>
			<path class="st2" d="M79.6,72c0,2.6-0.1,4.3-0.2,5.2c-0.2,1.4-0.9,2.7-1.9,3.7c-1.6,1.6-3.5,2.4-5.8,2.4s-4.2-0.8-5.8-2.4
				c-1-1-1.6-2.2-1.9-3.7c-0.2-0.9-0.2-2.6-0.2-5.2s0.1-4.3,0.2-5.2c0.3-1.4,0.9-2.7,1.9-3.7c1.6-1.6,3.5-2.4,5.8-2.4
				s4.3,0.8,5.8,2.4c1,1,1.6,2.2,1.9,3.7C79.6,67.7,79.6,69.5,79.6,72z M76.3,72c0-1.9,0-3.1-0.1-3.6c-0.1-1.5-0.5-2.6-1.2-3.3
				c-0.8-0.9-1.9-1.4-3.3-1.4c-1.3,0-2.4,0.5-3.3,1.4c-0.7,0.7-1.1,1.8-1.2,3.3c-0.1,0.5-0.1,1.7-0.1,3.6s0,3.1,0.1,3.6
				c0.1,1.5,0.5,2.6,1.2,3.3c0.8,0.9,1.9,1.4,3.3,1.4c1.3,0,2.4-0.5,3.3-1.4c0.7-0.7,1.1-1.8,1.2-3.3C76.3,75.1,76.3,73.9,76.3,72z"
				/>
			<path class="st2" d="M97.2,72c0,2.6-0.1,4.3-0.2,5.2c-0.2,1.4-0.9,2.7-1.9,3.7c-1.6,1.6-3.5,2.4-5.8,2.4s-4.2-0.8-5.8-2.4
				c-1-1-1.6-2.2-1.9-3.7c-0.2-0.9-0.2-2.6-0.2-5.2s0.1-4.3,0.2-5.2c0.3-1.4,0.9-2.7,1.9-3.7c1.6-1.6,3.5-2.4,5.8-2.4
				s4.3,0.8,5.8,2.4c1,1,1.6,2.2,1.9,3.7C97.1,67.7,97.2,69.5,97.2,72z M93.8,72c0-1.9,0-3.1-0.1-3.6c-0.1-1.5-0.5-2.6-1.2-3.3
				c-0.8-0.9-1.9-1.4-3.3-1.4c-1.3,0-2.4,0.5-3.3,1.4c-0.7,0.7-1.1,1.8-1.2,3.3c-0.1,0.5-0.1,1.7-0.1,3.6s0,3.1,0.1,3.6
				c0.1,1.5,0.5,2.6,1.2,3.3c0.8,0.9,1.9,1.4,3.3,1.4c1.3,0,2.4-0.5,3.3-1.4c0.7-0.7,1.1-1.8,1.2-3.3C93.8,75.1,93.8,73.9,93.8,72z"
				/>
			<path class="st2" d="M113.2,64h-6.1v19.1h-3.3V64h-6.1v-3h15.5V64z"/>
			<path class="st2" d="M132.8,80.7c-1.8,1.7-3.8,2.6-6.2,2.6c-2.3,0-4.2-0.8-5.8-2.4c-1-1-1.6-2.2-1.9-3.7
				c-0.2-0.9-0.2-2.6-0.2-5.2s0.1-4.3,0.2-5.2c0.3-1.4,0.9-2.7,1.9-3.7c1.6-1.6,3.5-2.4,5.8-2.4s4.4,0.9,6.2,2.6l-2.2,2.3
				c-1.2-1.2-2.6-1.9-3.9-1.9c-1.3,0-2.4,0.4-3.3,1.3c-0.7,0.7-1.1,1.8-1.2,3.3c-0.1,0.5-0.1,1.7-0.1,3.6s0,3.1,0.1,3.6
				c0.1,1.5,0.5,2.6,1.2,3.3c0.8,0.9,1.9,1.3,3.3,1.3s2.7-0.6,3.9-1.9L132.8,80.7z"/>
			<path class="st2" d="M151,83.1h-3.6l-1.5-4.4h-8.7l-1.5,4.4h-3.6l8.1-22.1h2.7L151,83.1z M145,75.8l-3.3-9.8l-3.4,9.8H145z"/>
			<path class="st2" d="M171.1,83.1h-3.3V68.3l-5.1,10.8h-2.5L155,68.3v14.8h-3.3V61h3.3l6.4,13.7l6.3-13.7h3.3v22.1H171.1z"/>
			<path class="st2" d="M189.8,67.7c0,1.9-0.6,3.5-1.9,4.8c-1.3,1.3-3,1.9-5.1,1.9h-5v8.7h-3.3V61h8.4c2.1,0,3.8,0.6,5.1,1.9
				C189.2,64.2,189.8,65.8,189.8,67.7z M186.5,67.7c0-1.2-0.4-2.1-1.1-2.7c-0.7-0.7-1.7-1-2.8-1h-4.8v7.3h4.8c1.2,0,2.1-0.3,2.8-1
				C186.1,69.7,186.5,68.8,186.5,67.7z"/>
		</g>
		<polyline class="st2" points="99.8,46.9 40.8,46.9 40.8,95.1 195.6,95.1 195.6,47.4 136.9,47.4 		"/>
		<g id="hfesP5_1_">
			<g>
				<path class="st2" d="M94.6,51.9c0-0.6,0-1.2,0-1.8c0.8,0,1.7,0,2.5,0c0.4,0,0.7-0.1,1-0.5c3.8-6,7.6-12,11.5-18
					c2.5-3.9,4.9-7.8,7.4-11.6c0.3-0.5,0.4-0.9,0-1.4c-0.6-0.8-1.2-1.7-1.8-2.7c0.4-0.3,0.7-0.7,1.2-1.1c0.6,1,1.2,1.9,1.9,2.9
					c0.7-1,1.3-1.9,1.9-2.7c1.2,0.5,1.3,0.9,0.6,1.8c-0.4,0.7-0.9,1.3-1.3,2c-0.2,0.3-0.3,0.6,0,0.9c3.4,5.4,6.9,10.9,10.3,16.3
					c2.8,4.5,5.7,9,8.5,13.4c0.3,0.5,0.6,0.6,1.1,0.6c0.8,0,1.6,0,2.5,0c0,0.7,0,1.2,0,1.8C126,51.9,110.3,51.9,94.6,51.9z
					 M118.3,35.8c-3,4.8-6,9.5-9,14.2c6,0,11.9,0,17.8,0C124.1,45.2,121.2,40.6,118.3,35.8z"/>
			</g>
		</g>
	</g>
</g>
<polyline class="st3" points="102.7,40.9 40.4,40.9 40.4,89.2 195.2,89.2 195.2,41.5 132.6,41.5 "/>
<g id="Capa_3" class="st0">
	<g class="st1">
		<polyline class="st2" points="101.6,37.6 40.8,37.6 40.8,85.8 195.6,85.8 195.6,38.2 122.1,38.2 		"/>
		<g>
			<path class="st2" d="M63.5,70.8c0,2.4-0.9,4.3-2.6,5.7c-1.8,1.4-4,2.1-6.8,2.1c-3.9,0-7-1.2-9.3-3.5l2.7-2.6
				c1.7,1.7,3.9,2.5,6.7,2.5c1.7,0,3.1-0.4,4-1.1s1.4-1.7,1.4-3c0-1.2-0.3-2.1-1-2.7c-0.6-0.5-1.6-0.9-2.9-1.1l-3.1-0.4
				c-2.2-0.3-3.8-1-5-2.1c-1.3-1.2-1.9-2.9-1.9-5c0-2.3,0.8-4.2,2.4-5.6c1.6-1.4,3.7-2.1,6.4-2.1c3.3,0,6,1,8.2,3L60,57.3
				c-1.4-1.4-3.3-2-5.7-2c-1.5,0-2.7,0.4-3.5,1.1c-0.9,0.8-1.3,1.8-1.3,3c0,1,0.3,1.9,1,2.5s1.7,1,2.9,1.2l3,0.4
				c2.2,0.3,3.8,1,4.9,2C62.8,66.7,63.5,68.5,63.5,70.8z"/>
			<path class="st2" d="M83.5,55.6h-7.3v22.7h-4V55.6H65V52h18.5V55.6z"/>
			<path class="st2" d="M106,78.3h-4.3L99.9,73H89.5l-1.8,5.3h-4.3L93.1,52h3.2L106,78.3z M98.8,69.7l-4-11.7l-4.1,11.7H98.8z"/>
			<path class="st2" d="M127.4,78.3h-4.7l-5.6-11.1h-5v11.1h-4V52h10.2c2.5,0,4.4,0.7,5.9,2.1c1.5,1.4,2.2,3.3,2.2,5.5
				c0,1.8-0.5,3.3-1.5,4.5c-1,1.2-2.2,2-3.8,2.5L127.4,78.3z M122.6,59.7c0-1.3-0.4-2.3-1.2-3c-0.8-0.7-1.9-1.1-3.3-1.1h-5.9v8.3
				h5.9c1.4,0,2.4-0.4,3.3-1.1S122.6,61,122.6,59.7z"/>
			<path class="st2" d="M149.5,69.5c0,2.7-0.9,4.9-2.7,6.6s-4.1,2.5-6.8,2.5s-5-0.8-6.8-2.5s-2.7-3.9-2.7-6.6V52h4v17.3
				c0,1.8,0.5,3.1,1.5,4.2s2.3,1.5,4,1.5s3-0.5,4-1.5s1.5-2.4,1.5-4.2V52h4V69.5z"/>
			<path class="st2" d="M172.9,60c0,2.3-0.8,4.2-2.3,5.7S167,68,164.5,68h-6v10.4h-4V52h10c2.5,0,4.6,0.8,6.1,2.3
				C172.1,55.8,172.9,57.7,172.9,60z M168.9,60c0-1.4-0.4-2.5-1.3-3.2c-0.9-0.8-2-1.2-3.4-1.2h-5.8v8.8h5.8c1.4,0,2.5-0.4,3.4-1.2
				C168.5,62.4,168.9,61.3,168.9,60z"/>
			<path class="st2" d="M192.7,70.8c0,2.4-0.9,4.3-2.6,5.7c-1.8,1.4-4,2.1-6.8,2.1c-3.9,0-7-1.2-9.3-3.5l2.7-2.6
				c1.7,1.7,3.9,2.5,6.7,2.5c1.7,0,3.1-0.4,4-1.1s1.4-1.7,1.4-3c0-1.2-0.3-2.1-1-2.7c-0.6-0.5-1.6-0.9-2.9-1.1l-3.1-0.4
				c-2.2-0.3-3.8-1-5-2.1c-1.3-1.2-1.9-2.9-1.9-5c0-2.3,0.8-4.2,2.4-5.6c1.6-1.4,3.7-2.1,6.4-2.1c3.3,0,6,1,8.2,3l-2.5,2.5
				c-1.4-1.4-3.3-2-5.7-2c-1.5,0-2.7,0.4-3.5,1.1c-0.9,0.8-1.3,1.8-1.3,3c0,1,0.3,1.9,1,2.5s1.7,1,2.9,1.2l3,0.4
				c2.2,0.3,3.8,1,4.9,2C192,66.7,192.7,68.5,192.7,70.8z"/>
		</g>
		<g id="FSuVWQ.tif_1_">
			<g>
				<path class="st2" d="M127.8,17.2c1-0.2,2-0.4,3-0.6s2-0.3,3-0.5c0.1,0,0.2,0,0.3,0c0.7,0,0.9,0.2,0.8,0.9
					c-0.2,1.3-0.4,2.5-0.6,3.8c-0.1,0.8-0.3,1.7-0.5,2.5C131.8,21.3,129.8,19.3,127.8,17.2z"/>
				<g>
					<path class="st2" d="M133.3,23.9c-2-2-4.1-4.1-6.1-6.1c-0.2-0.2-0.4-0.3-0.7-0.2c-2.8,1-5.3,2.6-7.5,4.5
						c-2.6,2.2-4.7,4.8-6.6,7.6c-0.1,0.2-0.3,0.3-0.5,0.3c-1.5,0.1-2.9,0.2-4.4,0.3c-0.2,0-0.5,0.1-0.6,0.3c-1.8,2-3.5,3.9-5.2,5.9
						c-0.3,0.4-0.3,0.7,0,1s0.6,0.6,0.9,0.9c0.4,0.4,0.6,0.4,1.1,0.1c1.3-0.8,2.6-1.6,3.9-2.4c0.3-0.2,0.5-0.1,0.8,0.1
						c-0.2,0.3-0.3,0.6-0.5,0.8c-0.2,0.3-0.1,0.6,0.1,0.8c1.7,1.7,3.5,3.5,5.2,5.2c0.2,0.2,0.5,0.3,0.8,0.1s0.6-0.3,0.9-0.5
						c0.2,0.3,0.2,0.5,0,0.8c-0.8,1.3-1.6,2.6-2.4,3.9c-0.2,0.4-0.2,0.6,0.1,0.9c0.3,0.3,0.6,0.6,0.9,0.9c0.5,0.5,0.7,0.5,1.2,0
						c1.9-1.7,3.8-3.3,5.7-5c0.2-0.2,0.4-0.5,0.4-0.8c0.1-1.4,0.2-2.9,0.3-4.3c0-0.3,0.1-0.4,0.3-0.6c2.3-1.6,4.5-3.4,6.5-5.4
						c2.5-2.5,4.4-5.4,5.7-8.7C133.5,24.4,133.5,24.2,133.3,23.9z M124.6,29c-1.4,0-2.5-1.1-2.5-2.5s1.1-2.5,2.5-2.5
						s2.5,1.1,2.5,2.5S126,29,124.6,29z"/>
				</g>
			</g>
		</g>
	</g>
</g>
<g>
	<path class="st3" d="M59.6,78.2l-8.4-13v13h-4.1V57h3.7l8.4,13V57h4.1v21.2H59.6z"/>
	<path class="st3" d="M80.4,76c-1.5,1.5-3.3,2.3-5.7,2.3S70.5,77.5,69,76c-2.1-2.1-2.1-4.8-2.1-8.4s-0.1-6.3,2.1-8.4
		c1.5-1.5,3.3-2.3,5.7-2.3s4.2,0.8,5.7,2.3c2.1,2.1,2.1,4.8,2.1,8.4S82.6,73.9,80.4,76z M77.4,61.7c-0.6-0.7-1.5-1.1-2.6-1.1
		c-1.1,0-2.1,0.4-2.7,1.1c-0.8,0.9-1,1.9-1,5.9s0.2,5.1,1,5.9c0.6,0.7,1.5,1.1,2.7,1.1c1.1,0,2.1-0.4,2.6-1.1c0.8-0.9,1-1.9,1-5.9
		S78.2,62.5,77.4,61.7z"/>
	<path class="st3" d="M92,78.4c-3.2,0-5.6-0.7-7.7-2.8l2.7-2.7c1.3,1.3,3.2,1.8,5.1,1.8c2.4,0,3.7-0.9,3.7-2.6
		c0-0.7-0.2-1.4-0.7-1.8c-0.4-0.4-0.9-0.6-1.9-0.7l-2.6-0.4c-1.8-0.3-3.2-0.8-4.1-1.8c-1-1-1.5-2.4-1.5-4.2c0-3.8,2.8-6.4,7.4-6.4
		c2.9,0,5,0.7,6.8,2.5l-2.6,2.6c-1.3-1.3-2.9-1.5-4.3-1.5c-2.2,0-3.3,1.2-3.3,2.7c0,0.5,0.2,1.1,0.6,1.5c0.4,0.4,1.1,0.7,2,0.8
		l2.5,0.4c1.9,0.3,3.2,0.8,4,1.6c1.1,1.1,1.6,2.6,1.6,4.5C99.9,76,96.4,78.4,92,78.4z"/>
	<path class="st3" d="M116,76c-1.5,1.5-3.3,2.3-5.7,2.3c-2.4,0-4.3-0.8-5.7-2.3c-2.1-2.1-2.1-4.8-2.1-8.4s-0.1-6.3,2.1-8.4
		c1.5-1.5,3.3-2.3,5.7-2.3c2.4,0,4.2,0.8,5.7,2.3c2.1,2.1,2.1,4.8,2.1,8.4S118.1,73.9,116,76z M112.9,61.7c-0.6-0.7-1.5-1.1-2.6-1.1
		c-1.1,0-2.1,0.4-2.7,1.1c-0.8,0.9-1,1.9-1,5.9s0.2,5.1,1,5.9c0.6,0.7,1.5,1.1,2.7,1.1c1.1,0,2.1-0.4,2.6-1.1c0.8-0.9,1-1.9,1-5.9
		S113.7,62.5,112.9,61.7z"/>
	<path class="st3" d="M129.2,60.7v17.5h-4.1V60.7h-5.5V57h15.2v3.7H129.2z"/>
	<path class="st3" d="M148.7,78.2l-4.1-8.4h-3v8.4h-4.1V57h8.3c4.3,0,6.9,2.9,6.9,6.5c0,3-1.8,4.8-3.9,5.6l4.7,9.1H148.7z
		 M145.5,60.7h-3.9v5.6h3.9c1.8,0,3-1.2,3-2.8S147.3,60.7,145.5,60.7z"/>
	<path class="st3" d="M169.2,76c-1.5,1.5-3.3,2.3-5.7,2.3c-2.4,0-4.3-0.8-5.7-2.3c-2.1-2.1-2.1-4.8-2.1-8.4s-0.1-6.3,2.1-8.4
		c1.5-1.5,3.3-2.3,5.7-2.3c2.4,0,4.2,0.8,5.7,2.3c2.1,2.1,2.1,4.8,2.1,8.4S171.3,73.9,169.2,76z M166.1,61.7
		c-0.6-0.7-1.5-1.1-2.6-1.1s-2.1,0.4-2.7,1.1c-0.8,0.9-1,1.9-1,5.9s0.2,5.1,1,5.9c0.6,0.7,1.5,1.1,2.7,1.1s2.1-0.4,2.6-1.1
		c0.8-0.9,1-1.9,1-5.9S166.9,62.5,166.1,61.7z"/>
	<path class="st3" d="M180.7,78.4c-3.2,0-5.6-0.7-7.7-2.8l2.7-2.7c1.3,1.3,3.2,1.8,5.1,1.8c2.4,0,3.7-0.9,3.7-2.6
		c0-0.7-0.2-1.4-0.7-1.8c-0.4-0.4-0.9-0.6-1.9-0.7l-2.6-0.4c-1.8-0.3-3.2-0.8-4.1-1.8c-1-1-1.5-2.4-1.5-4.2c0-3.8,2.8-6.4,7.4-6.4
		c2.9,0,5,0.7,6.8,2.5l-2.6,2.6c-1.3-1.3-2.9-1.5-4.3-1.5c-2.2,0-3.3,1.2-3.3,2.7c0,0.5,0.2,1.1,0.6,1.5c0.4,0.4,1.1,0.7,2,0.8
		l2.5,0.4c1.9,0.3,3.2,0.8,4,1.6c1.1,1.1,1.6,2.6,1.6,4.5C188.6,76,185.1,78.4,180.7,78.4z"/>
</g>
<g>
	<circle class="st3" cx="117.8" cy="33.9" r="16.3"/>
	<g>
		<defs>
			
				<ellipse id="SVGID_1_" transform="matrix(0.9947 -0.1029 0.1029 0.9947 -2.9281 12.3114)" cx="117.8" cy="34.5" rx="15.7" ry="15.7"/>
		</defs>
		<clipPath id="SVGID_2_">
			<use xlink:href="#SVGID_1_"  style="overflow:visible;"/>
		</clipPath>
		<g id="bBNPl5_1_" class="st4">
			<g>
				<g>
					<path class="st5" d="M110.3,36.4c0.7,0,1.4,0,2.1,0c0.1,0,0.2,0,0.3,0c0.1,1.4,0.6,2.6,1.6,3.6c-3.5,1.3-4.8,3.9-4.6,7.5
						c-0.1,0-0.1,0-0.1,0c0,0,0,0,0,0c-2-0.1-3.9-0.5-5.8-1.1c-0.2,0-0.3-0.1-0.5-0.1c0-1.7,0-3.3,0-5c0.1-0.3,0.1-0.5,0.2-0.8
						c0.4-1.5,1.3-2.7,2.7-3.4c0.8-0.4,1.6-0.6,2.5-0.6C109.2,36.4,109.8,36.4,110.3,36.4 M110.3,35.4c-0.6,0-1.1,0-1.7,0
						c-1.1,0-2,0.3-3,0.8c-1.6,0.9-2.7,2.3-3.1,4c0,0.2-0.1,0.4-0.1,0.6l-0.1,0.2l0,0.1v0.1v5V47l0.7,0.2l0.2,0c0.1,0,0.2,0,0.3,0.1
						c2.1,0.6,4.1,1,6,1.1l0,0l0,0c0,0,0.1,0,0.2,0l1-0.1l0-1c-0.2-3.3,1-5.3,3.9-6.5l1.4-0.6l-1.1-1.1c-0.8-0.8-1.2-1.8-1.3-2.9
						l0-0.9l-0.9-0.1l-0.1,0c-0.1,0-0.2,0-0.3,0l-0.7,0L110.3,35.4L110.3,35.4z"/>
				</g>
				<g>
					<path class="st5" d="M123.4,36.4C123.4,36.4,123.4,36.4,123.4,36.4c0.3,0,0.7,0,1,0c0.3,0,0.5,0,0.8,0c0.6,0,1.3,0,1.9,0
						c1.4,0.1,2.6,0.7,3.6,1.7c0.8,0.8,1.2,1.8,1.4,2.9c0,0.1,0,0.1,0.1,0.2c0,1.6,0,3.3,0,4.9c-1.9,1-4.5,1.3-6,1.3
						c0-0.1,0-0.2,0-0.3c0-0.8,0-1.6-0.1-2.4c-0.3-1.4-1-2.6-2.1-3.5c-0.3-0.3-0.7-0.5-1.1-0.8c-0.4-0.2-0.8-0.4-1.2-0.6
						c0.1-0.2,0.3-0.3,0.4-0.5c0.7-0.8,1-1.8,1.1-2.8C123.2,36.5,123.2,36.4,123.4,36.4 M123.4,35.4c-0.5,0-1.1,0.3-1.2,1.2
						c-0.1,0.9-0.4,1.6-0.9,2.3c-0.1,0.1-0.2,0.2-0.3,0.3l-0.1,0.2l-0.9,1l1.2,0.6c0.1,0.1,0.3,0.1,0.4,0.2c0.3,0.1,0.5,0.2,0.7,0.4
						c0.4,0.2,0.7,0.4,1,0.7c0.9,0.8,1.5,1.7,1.8,2.9c0.1,0.6,0.1,1.2,0.1,1.9l0,0.3c0,0.1,0,0.2,0,0.3l0,0.1l0,1l1,0
						c1.4,0,4.3-0.3,6.4-1.4l0.5-0.3v-0.6v-4.9v-0.1l0-0.1l0-0.1c-0.2-1.3-0.8-2.5-1.7-3.4c-1.2-1.3-2.7-1.9-4.3-2
						c-0.6,0-1.2,0-1.9,0l-0.4,0l-0.4,0C124.1,35.4,123.8,35.4,123.4,35.4L123.4,35.4L123.4,35.4L123.4,35.4z"/>
				</g>
				<g>
					<path class="st5" d="M116.3,40.7C116.3,40.7,116.3,40.7,116.3,40.7c0.2,0,0.4,0,0.7,0c0.3,0,0.7,0,1,0c0,0,0,0,0,0
						c0.5,0,0.9,0,1.4,0c0.3,0,0.6,0,0.8,0c1.2,0.1,2.3,0.6,3.2,1.4c0.9,0.8,1.4,1.7,1.7,2.9c0.1,0.4,0.1,0.8,0.1,1.2
						c0,1.4,0,2.7,0,4.1c0,0.2-0.1,0.3-0.2,0.3c-1.4,0.7-3,1-4.6,1.1c-0.7,0.1-1.4,0.1-2,0.1c-1.9,0-3.8-0.3-5.6-0.7
						c-0.6-0.1-1.2-0.3-1.8-0.5c-0.1,0-0.2-0.1-0.2-0.2c0-1.4,0-2.9,0-4.3c0.1-2.1,1-3.7,2.9-4.7C114.5,40.9,115.4,40.7,116.3,40.7
						 M116.3,39.7c-1.2,0-2.2,0.3-3.1,0.8c-2.1,1.2-3.3,3.1-3.4,5.6c0,1,0,2,0,2.9c0,0.5,0,1,0,1.4c0,0.6,0.4,1.1,0.9,1.2
						c0.2,0.1,0.5,0.1,0.7,0.2c0.4,0.1,0.7,0.2,1.1,0.3c2.1,0.5,4,0.8,5.9,0.8c0.7,0,1.4,0,2.1-0.1c2-0.2,3.5-0.6,4.9-1.2
						c0.5-0.2,0.8-0.7,0.8-1.3c0-0.6,0-1.2,0-1.7c0-0.8,0-1.6,0-2.3c0-0.4,0-0.9-0.1-1.4c-0.3-1.3-1-2.5-2-3.4
						c-1.1-1-2.4-1.6-3.9-1.6c-0.3,0-0.6,0-0.9,0c-0.2,0-0.4,0-0.6,0l-0.7,0l-0.5,0l-0.5,0L116.3,39.7L116.3,39.7L116.3,39.7
						L116.3,39.7z"/>
				</g>
				<g>
					<path class="st5" d="M118,32C118,32,118,32,118,32c2.4,0,4.2,1.9,4.2,4.2c0,2.3-1.9,4.2-4.2,4.2c0,0,0,0,0,0
						c-2.3,0-4.2-1.9-4.2-4.3C113.8,33.9,115.6,32,118,32 M118,31c-2.9,0-5.2,2.3-5.2,5.2c0,1.4,0.5,2.7,1.5,3.7
						c1,1,2.3,1.6,3.7,1.6c2.9,0,5.2-2.3,5.2-5.2c0-1.4-0.5-2.7-1.5-3.7C120.7,31.6,119.4,31,118,31L118,31L118,31L118,31z"/>
				</g>
				<g>
					<path class="st5" d="M110.5,26.6c0.7,0,1.3,0.2,2,0.5c1.5,0.8,2.2,2.1,2.2,3.8c0,0.1-0.1,0.2-0.1,0.3c-1,0.8-1.5,1.8-1.8,3
						c0,0.1-0.1,0.2-0.2,0.3c-0.6,0.4-1.3,0.5-1.9,0.6c-0.1,0-0.1,0-0.2,0c-1.9,0-3.6-1.2-4.1-3c-0.5-1.8,0.2-3.8,1.8-4.8
						C109,26.8,109.8,26.6,110.5,26.6 M110.5,25.6L110.5,25.6c-0.9,0-1.9,0.3-2.8,0.8c-2,1.2-2.9,3.7-2.3,5.9
						c0.7,2.2,2.7,3.7,5.1,3.7c0.1,0,0.1,0,0.2,0c0.8,0,1.6-0.3,2.3-0.7c0.3-0.2,0.6-0.5,0.7-0.9c0.2-1,0.7-1.8,1.5-2.5
						c0.3-0.3,0.5-0.7,0.5-1.1c0-2.1-1-3.7-2.7-4.6C112.2,25.8,111.4,25.6,110.5,25.6L110.5,25.6z"/>
				</g>
				<g>
					<path class="st5" d="M124.9,26.6c2.1,0,3.8,1.4,4.2,3.4c0.4,2-0.7,4.1-2.7,4.8c-0.5,0.2-1,0.3-1.5,0.3c-0.5,0-1.1-0.1-1.6-0.3
						c-0.2-0.1-0.2-0.2-0.2-0.3c-0.2-1.1-0.6-2-1.4-2.8c-0.2-0.3-0.5-0.5-0.8-0.7c-0.1-0.1-0.2-0.2-0.2-0.3c0.1-1.4,0.8-2.5,2-3.3
						C123.4,26.8,124.2,26.6,124.9,26.6 M124.9,25.6L124.9,25.6c-1,0-1.9,0.3-2.7,0.8c-1.5,1-2.3,2.3-2.4,4.1c0,0.5,0.1,0.9,0.5,1.2
						l0.1,0.1c0.2,0.2,0.5,0.4,0.6,0.5c0.6,0.6,1,1.4,1.1,2.3c0.1,0.5,0.4,0.9,0.8,1.1c0.7,0.3,1.3,0.4,2,0.4c0.6,0,1.2-0.1,1.8-0.3
						c2.4-0.9,3.8-3.4,3.3-5.9C129.6,27.4,127.5,25.6,124.9,25.6L124.9,25.6L124.9,25.6z"/>
				</g>
			</g>
		</g>
	</g>
</g>
</svg>
